<?xml version="1.0" encoding="utf-8"?>
<!-- Generator: Adobe Illustrator 24.2.1, SVG Export Plug-In . SVG Version: 6.00 Build 0)  -->
<svg version="1.1" id="Слой_1" xmlns="http://www.w3.org/2000/svg" xmlns:xlink="http://www.w3.org/1999/xlink" x="0px" y="0px"
	 viewBox="0 0 204.75 69.67" style="enable-background:new 0 0 204.75 69.67;" xml:space="preserve">
<style type="text/css">
	.st0{fill:#595A5C;}
	.st1{display:none;}
	.st2{display:inline;}
	.st3{fill:#808386;}
</style>
<g>
	<path class="st0" d="M44.74,8.01l-0.45-0.14l-0.56,1.88l0.45,0.13c7.18,2.14,13.1,6.94,16.67,13.53
		c3.56,6.59,4.35,14.18,2.21,21.36c-2.14,7.18-6.94,13.1-13.53,16.66c-4.1,2.22-8.71,3.39-13.31,3.39c-2.71,0-5.42-0.4-8.05-1.18
		c-7.18-2.14-13.1-6.95-16.66-13.53l-0.23-0.42l-1.73,0.93l0.23,0.41c3.81,7.05,10.15,12.2,17.83,14.48
		c2.82,0.84,5.71,1.27,8.61,1.27l0,0c4.93,0,9.85-1.26,14.24-3.63c7.05-3.81,12.19-10.15,14.48-17.83
		c2.29-7.68,1.44-15.8-2.37-22.85C58.76,15.44,52.42,10.3,44.74,8.01z"/>
	<path class="st0" d="M64.92,18.23C60.26,10.89,53.13,5.66,44.67,3.49c-2.81-0.72-5.69-1.09-8.55-1.09
		c-6.04,0-12.02,1.64-17.29,4.76C10.98,11.79,5.41,19.2,3.15,28.03c-2.27,8.82-0.97,18,3.67,25.84
		c4.63,7.84,12.04,13.41,20.87,15.68l0.46,0.12l0.52-2.03l-0.46-0.12c-8.28-2.13-15.24-7.35-19.58-14.71
		c-4.35-7.36-5.57-15.98-3.44-24.26c2.12-8.27,7.35-15.23,14.71-19.58c4.94-2.92,10.55-4.46,16.22-4.46c2.69,0,5.39,0.34,8.03,1.02
		c8.14,2.09,14.99,7.19,19.35,14.37v0.46h0.3l0.17,0.29l0.49-0.29h137.59v-2.13H64.92z"/>
</g>
<g class="st1">
	<g class="st2">
		<path class="st3" d="M27.64,50.56c-1.25,0-2.26-1.01-2.26-2.25l0,0V34.87c0-1.25,1.01-2.25,2.26-2.25l0,0H44.3
			c1.25,0,2.25,1.01,2.26,2.25l0,0v13.44c-0.01,1.24-1.01,2.25-2.26,2.25l0,0H27.64L27.64,50.56z M27.32,34.87v13.44
			c0,0.18,0.14,0.32,0.32,0.32l0,0H44.3c0.18,0,0.32-0.14,0.32-0.32l0,0V34.87c0-0.18-0.14-0.32-0.32-0.32l0,0H27.64
			C27.47,34.54,27.32,34.69,27.32,34.87L27.32,34.87z"/>
	</g>
	<g class="st2">
		<path class="st3" d="M20.98,34.93v-0.97l0.59,0.77l-0.59-0.77V34.93c-0.42,0-0.78-0.26-0.92-0.66l0,0c-0.13-0.39,0-0.83,0.33-1.08
			l0,0l15-11.48c0.34-0.26,0.82-0.26,1.17,0l0,0l14.99,11.48c0.33,0.25,0.46,0.69,0.33,1.08l0,0c-0.13,0.39-0.5,0.66-0.91,0.66l0,0
			H20.98L20.98,34.93z M48.12,32.99l-12.15-9.3l-12.13,9.3H48.12L48.12,32.99z"/>
	</g>
	<g class="st2">
		<path class="st3" d="M35.81,50.38c-1.07,0-1.94-0.87-1.94-1.93l0,0v-6.37c0-1.07,0.86-1.93,1.94-1.93l0,0h3.68
			c1.06,0,1.93,0.87,1.93,1.93l0,0v6.37c0,1.07-0.87,1.93-1.93,1.93l0,0H35.81L35.81,50.38z M35.16,48.45
			c0,0.35,0.29,0.64,0.65,0.64l0,0h3.68c0.36,0,0.64-0.29,0.64-0.64l0,0v-6.37c0-0.35-0.29-0.65-0.64-0.65l0,0h-3.68
			c-0.36,0-0.65,0.29-0.65,0.65l0,0V48.45L35.16,48.45z"/>
	</g>
</g>
<g>
	
		<rect x="44.44" y="31.78" transform="matrix(0.9996 -0.0294 0.0294 0.9996 -0.9293 1.4464)" class="st3" width="8.51" height="1.05"/>
	
		<rect x="21.55" y="27.73" transform="matrix(0.012 -0.9999 0.9999 0.012 -10.6295 54.1158)" class="st3" width="1.04" height="9.4"/>
	<g>
		<g>
			<path class="st3" d="M41.04,31.52c0,0,0.65-5.49,3.14-0.65l8.63-0.13c0,0-0.65-5.66-16.88-5.75v0c-0.07,0-0.13,0-0.2,0
				c-0.06,0-0.12,0-0.19,0v0c-17.23,0.09-17.93,5.75-17.93,5.75l9.16,0.13c2.63-4.84,3.33,0.65,3.33,0.65
				c-4.17,1.83-6.25,15.57-6.25,15.57h23.06C46.93,47.09,44.97,33.35,41.04,31.52z M35.42,28.12c1.85,0,3.4,1.11,3.89,2.62h-7.77
				C32.01,29.23,33.56,28.12,35.42,28.12z M35.22,41.46c-2.42,0-4.38-1.96-4.38-4.38c0-2.42,1.97-4.38,4.38-4.38
				c2.42,0,4.38,1.96,4.38,4.38C39.6,39.5,37.64,41.46,35.22,41.46z"/>
		</g>
	</g>
</g>
</svg>
